<svg xmlns="http://www.w3.org/2000/svg" viewBox="0 0 192 192">
  <rect width="192" height="192" rx="24" fill="#1a1a2e"/>
  <rect x="24" y="54" width="144" height="84" rx="6" fill="#16213e"/>
  <rect x="30" y="60" width="132" height="72" rx="4" fill="#0f3460"/>
  <rect x="36" y="72" width="18" height="18" rx="3" fill="#e94560"/>
  <rect x="60" y="72" width="18" height="18" rx="3" fill="#e94560"/>
  <rect x="84" y="72" width="18" height="18" rx="3" fill="#e94560"/>
  <rect x="108" y="72" width="18" height="18" rx="3" fill="#e94560"/>
  <rect x="132" y="72" width="18" height="18" rx="3" fill="#e94560"/>
  <rect x="36" y="96" width="18" height="18" rx="3" fill="#e94560"/>
  <rect x="60" y="96" width="18" height="18" rx="3" fill="#533483"/>
  <rect x="84" y="96" width="18" height="18" rx="3" fill="#533483"/>
  <rect x="108" y="96" width="18" height="18" rx="3" fill="#533483"/>
  <rect x="132" y="96" width="18" height="18" rx="3" fill="#e94560"/>
  <rect x="36" y="120" width="120" height="6" rx="2" fill="#e94560" opacity="0.3"/>
</svg>
