<svg xmlns="http://www.w3.org/2000/svg" viewBox="0 0 512 512">
  <rect width="512" height="512" rx="64" fill="#1a1a2e"/>
  <rect x="64" y="144" width="384" height="224" rx="16" fill="#16213e"/>
  <rect x="80" y="160" width="352" height="192" rx="8" fill="#0f3460"/>
  <rect x="96" y="192" width="48" height="48" rx="8" fill="#e94560"/>
  <rect x="160" y="192" width="48" height="48" rx="8" fill="#e94560"/>
  <rect x="224" y="192" width="48" height="48" rx="8" fill="#e94560"/>
  <rect x="288" y="192" width="48" height="48" rx="8" fill="#e94560"/>
  <rect x="352" y="192" width="48" height="48" rx="8" fill="#e94560"/>
  <rect x="96" y="256" width="48" height="48" rx="8" fill="#e94560"/>
  <rect x="160" y="256" width="48" height="48" rx="8" fill="#533483"/>
  <rect x="224" y="256" width="48" height="48" rx="8" fill="#533483"/>
  <rect x="288" y="256" width="48" height="48" rx="8" fill="#533483"/>
  <rect x="352" y="256" width="48" height="48" rx="8" fill="#e94560"/>
  <rect x="96" y="320" width="320" height="16" rx="4" fill="#e94560" opacity="0.3"/>
</svg>
